<svg height="512pt" viewBox="0 0 512 512" width="512pt" xmlns="http://www.w3.org/2000/svg"><path d="m352.945312 512h-238.363281c-5.933593 0-8.5625-7.464844-3.941406-11.179688l97.914063-78.761718h50.417968l97.914063 78.761718c4.621093 3.714844 1.992187 11.179688-3.941407 11.179688zm0 0" fill="#dd9666"/><path d="m356.886719 500.820312-97.914063-78.761718h-50.417968l-9.601563 7.722656 102.210937 82.21875h51.78125c5.933594 0 8.5625-7.464844 3.941407-11.179688zm0 0" fill="#c97e4b"/><path d="m265.957031 69.765625c0-6.570313 1.957031-12.988281 5.617188-18.441406l17.964843-26.734375c4.96875-7.394532 2.839844-17.433594-4.703124-22.171875-2.515626-1.578125-5.425782-2.417969-8.398438-2.417969h-85.347656c-2.972656 0-5.882813.839844-8.398438 2.417969-7.542968 4.738281-9.671875 14.777343-4.703125 22.171875l17.964844 26.734375c3.664063 5.453125 5.617187 11.871093 5.617187 18.441406 0 11.109375-5.554687 21.5-14.847656 27.59375-27.78125 18.214844-82.9375 67.683594-61.367187 164.128906 28.402343 126.984375 32.5625 126.984375 32.5625 126.984375h151.691406s4.15625 0 32.5625-126.984375c21.570313-96.445312-33.589844-145.914062-61.371094-164.128906-9.289062-6.09375-14.84375-16.484375-14.84375-27.59375zm0 0" fill="#465058"/><path d="m280.804688 97.359375c-9.292969-6.09375-14.851563-16.484375-14.851563-27.59375 0-6.570313 1.957031-12.988281 5.621094-18.441406l17.964843-26.734375c4.96875-7.394532 2.839844-17.433594-4.703124-22.171875-2.515626-1.578125-5.425782-2.417969-8.398438-2.417969h-30.179688l-18.449218 38.894531c-12.230469 25.789063-6.910156 56.65625 13.640625 76.457031 26.765625 25.792969 55.386719 72.136719 38.835937 146.132813-28.402344 126.984375-32.5625 126.984375-32.5625 126.984375h61.886719s4.160156 0 32.5625-126.984375c21.574219-96.441406-33.585937-145.910156-61.367187-164.125zm0 0" fill="#323e44"/><path d="m130.042969 166.234375h207.441406c-2.117187-5.472656-4.511719-10.621094-7.113281-15.453125h-193.214844c-2.601562 4.832031-4.996094 9.980469-7.113281 15.453125zm0 0" fill="#323e44"/><path d="m448.582031 387.4375h-429.636719c-6.90625 0-12.867187 4.847656-14.277343 11.609375l-4.355469 20.898437c-1.886719 9.058594 5.023438 17.558594 14.273438 17.558594h438.355468c9.25 0 16.160156-8.5 14.273438-17.558594l-4.355469-20.898437c-1.410156-6.761719-7.367187-11.609375-14.277344-11.609375zm0 0" fill="#ff8c51"/><path d="m467.214844 419.945312-4.355469-20.898437c-1.410156-6.761719-7.371094-11.609375-14.277344-11.609375h-49l10.4375 50.066406h42.917969c9.253906 0 16.164062-8.5 14.277344-17.558594zm0 0" fill="#f26e3b"/><path d="m467.527344 231.203125c-34.136719-2.398437-40.980469-6.957031-46.167969-13.226563-2.972656-3.589843-6.523437-6.664062-10.511719-9.082031l-78.882812-47.914062c-8.058594-4.878907-18.542969-2.304688-23.421875 5.75-4.882813 8.054687-2.304688 18.542969 5.75 23.421875l30.910156 18.773437c1.6875 1.027344.960937 3.625-1.015625 3.625h-106.5c-9.246094 0-17.121094 7.191407-17.453125 16.429688-.34375 9.703125 7.417969 17.675781 17.042969 17.675781h-30.898438c-9.625 0-17.390625 7.976562-17.042968 17.679688.328124 9.238281 8.203124 16.429687 17.449218 16.429687h14.300782c-9.417969 0-17.050782 7.636719-17.050782 17.054687 0 9.417969 7.632813 17.054688 17.050782 17.054688h34.667968c-9.421875 0-17.054687 7.632812-17.054687 17.054688 0 9.417968 7.632812 17.050781 17.054687 17.050781h80.199219c24.027344 0 47.921875-3.632813 70.863281-10.777344l60.710938-7.652344zm0 0" fill="#ffe1cc"/><path d="m467.527344 231.203125c-34.136719-2.398437-40.980469-6.957031-46.167969-13.226563-2.972656-3.589843-6.523437-6.664062-10.511719-9.082031l-78.882812-47.914062c-8.058594-4.878907-18.542969-2.304688-23.421875 5.75-4.882813 8.054687-2.304688 18.542969 5.75 23.421875l30.910156 18.773437c1.6875 1.027344.960937 3.625-1.015625 3.625h-106.5c-9.246094 0-17.121094 7.191407-17.453125 16.429688-.34375 9.703125 7.417969 17.675781 17.042969 17.675781h-30.898438c-9.625 0-17.390625 7.976562-17.042968 17.679688.328124 9.238281 8.203124 16.429687 17.449218 16.429687h14.300782c-9.417969 0-17.050782 7.636719-17.050782 17.054687 0 9.417969 7.632813 17.054688 17.050782 17.054688h34.667968c-9.421875 0-17.054687 7.632812-17.054687 17.054688 0 9.417968 7.632812 17.050781 17.054687 17.050781h80.199219c24.027344 0 47.921875-3.632813 70.863281-10.777344l60.710938-7.652344zm0 0" fill="#ffe1cc"/><path d="m467.527344 231.203125c-34.136719-2.398437-40.980469-6.957031-46.167969-13.226563-2.972656-3.589843-6.523437-6.664062-10.511719-9.082031l-78.882812-47.914062c-8.058594-4.878907-18.542969-2.304688-23.421875 5.75-4.882813 8.054687-2.304688 18.542969 5.75 23.421875l30.910156 18.773437c1.6875 1.027344.960937 3.625-1.015625 3.625h-106.5c-9.246094 0-17.121094 7.191407-17.453125 16.429688-.34375 9.703125 7.417969 17.675781 17.042969 17.675781h-30.898438c-9.625 0-17.390625 7.976562-17.042968 17.679688.328124 9.238281 8.203124 16.429687 17.449218 16.429687h14.300782c-9.417969 0-17.050782 7.636719-17.050782 17.054687 0 9.417969 7.632813 17.054688 17.050782 17.054688h34.667968c-9.421875 0-17.054687 7.632812-17.054687 17.054688 0 9.417968 7.632812 17.050781 17.054687 17.050781h80.199219c24.027344 0 47.921875-3.632813 70.863281-10.777344l60.710938-7.652344zm0 0" fill="#ffe1cc"/><path d="m502.542969 340.617188h-31.4375c-4.984375 0-9.027344-4.042969-9.027344-9.027344v-99.796875c0-4.984375 4.042969-9.027344 9.027344-9.027344h31.4375c4.984375 0 9.027343 4.039063 9.027343 9.027344v99.796875c0 4.984375-4.042968 9.027344-9.027343 9.027344zm0 0" fill="#45748c"/><path d="m462.082031 331.589844c0 4.984375 4.039063 9.027344 9.023438 9.027344h31.4375c4.984375 0 9.027343-4.042969 9.027343-9.027344v-52.34375h-49.488281zm0 0" fill="#236575"/><path d="m317.246094 130.738281c-4.550782-5.804687-9.292969-10.941406-13.980469-15.453125h-139.003906c-4.6875 4.511719-9.429688 9.648438-13.976563 15.453125zm0 0" fill="#323e44"/><path d="m194.367188 48.960938h78.796874l10.382813-15.453126h-99.566406zm0 0" fill="#323e44"/><g fill="#efcdb6"><path d="m237.277344 229.605469c-6.289063 0-11.785156-3.410157-14.742188-8.476563-1.367187 2.316406-2.195312 4.988282-2.300781 7.851563-.34375 9.703125 7.417969 17.675781 17.042969 17.675781h107.675781c-.214844-9.476562-7.960937-17.050781-17.441406-17.050781zm0 0"/><path d="m192.078125 254.417969c-1.890625 2.90625-2.921875 6.421875-2.730469 10.183593.464844 9.144532 8.351563 16.164063 17.507813 16.164063h140.207031c0-10.203125-8.273438-18.476563-18.476562-18.476563h-121.800782c-6.082031 0-11.570312-3.109374-14.707031-7.871093zm0 0"/><path d="m206.316406 289.292969c-1.453125 2.507812-2.28125 5.421875-2.28125 8.527343 0 9.417969 7.632813 17.054688 17.050782 17.054688h125.976562c0-9.421875-7.636719-17.054688-17.054688-17.054688h-108.921874c-6.3125 0-11.820313-3.429687-14.769532-8.527343zm0 0"/><path d="m255.753906 331.929688c-6.3125 0-11.824218-3.433594-14.773437-8.527344-1.453125 2.507812-2.28125 5.417968-2.28125 8.527344 0 9.417968 7.632812 17.050781 17.054687 17.050781h80.199219c3.707031 0 7.410156-.085938 11.109375-.257813 0-9.273437-7.519531-16.792968-16.796875-16.792968zm0 0"/></g></svg>