<svg id="Coffee" height="512" viewBox="0 0 64 64" width="512" xmlns="http://www.w3.org/2000/svg"><ellipse cx="32" cy="54.5" fill="#3e3d42" rx="29" ry="6.5"/><path d="m44 55h-24a1 1 0 0 1 -1-1v-6h26v6a1 1 0 0 1 -1 1z" fill="#e9e9ea"/><path d="m14 19v6h-2.209a8.694 8.694 0 0 0 -8.773 7.934 8.5 8.5 0 0 0 8.482 9.066h2.5a8 8 0 0 0 8 8h20a8 8 0 0 0 8-8v-23zm0 19h-2.5a4.5 4.5 0 0 1 0-9h2.5z" fill="#e9e9ea"/><ellipse cx="32" cy="19" fill="#787680" rx="18" ry="5"/><ellipse cx="32" cy="21.5" fill="#98653d" rx="15.58" ry="2.5"/><ellipse cx="44.915" cy="51.559" fill="#98653d" rx="6" ry="5" transform="matrix(.819 -.574 .574 .819 -21.45 35.086)"/><path d="m36 44.5c0 5.21-2.17 9.53-5 10.36a3.641 3.641 0 0 1 -2 0c-2.83-.83-5-5.15-5-10.36 0-5.8 6-10.5 6-10.5s6 4.7 6 10.5z" fill="#91dc5a"/><g fill="#98653d"><path d="m30.55 11h2a1.572 1.572 0 0 1 .307-.986 3.523 3.523 0 0 0 .593-2.014 3.532 3.532 0 0 0 -.593-2.016 1.576 1.576 0 0 1 -.307-.984 1.565 1.565 0 0 1 .307-.983 3.527 3.527 0 0 0 .593-2.017h-2a1.565 1.565 0 0 1 -.307.983 3.527 3.527 0 0 0 -.593 2.017 3.531 3.531 0 0 0 .593 2.015 1.577 1.577 0 0 1 .307.985 1.571 1.571 0 0 1 -.307.985 3.535 3.535 0 0 0 -.593 2.015z"/><path d="m22.55 12h2a1.572 1.572 0 0 1 .307-.986 3.523 3.523 0 0 0 .593-2.014 3.532 3.532 0 0 0 -.593-2.016 1.576 1.576 0 0 1 -.307-.984 1.565 1.565 0 0 1 .307-.983 3.527 3.527 0 0 0 .593-2.017h-2a1.565 1.565 0 0 1 -.307.983 3.527 3.527 0 0 0 -.593 2.017 3.531 3.531 0 0 0 .593 2.015 1.577 1.577 0 0 1 .307.985 1.571 1.571 0 0 1 -.307.985 3.535 3.535 0 0 0 -.593 2.015z"/><path d="m38.55 12h2a1.572 1.572 0 0 1 .307-.986 3.523 3.523 0 0 0 .593-2.014 3.532 3.532 0 0 0 -.593-2.016 1.576 1.576 0 0 1 -.307-.984 1.565 1.565 0 0 1 .307-.983 3.527 3.527 0 0 0 .593-2.017h-2a1.565 1.565 0 0 1 -.307.983 3.527 3.527 0 0 0 -.593 2.017 3.531 3.531 0 0 0 .593 2.015 1.577 1.577 0 0 1 .307.985 1.571 1.571 0 0 1 -.307.985 3.535 3.535 0 0 0 -.593 2.015z"/></g><path d="m50.37 49.18a8.078 8.078 0 0 1 -1.17.3 3.912 3.912 0 0 0 -1.96.84 4.026 4.026 0 0 0 -1.35 1.64 6.018 6.018 0 0 1 -1.93 2.32 5.918 5.918 0 0 1 -2.76 1.2c-.23.05-.43.09-.65.15a3.711 3.711 0 0 1 -.55-.63 3.912 3.912 0 0 1 -.55-1.1 6.748 6.748 0 0 1 1.36-.38 4.551 4.551 0 0 0 3.31-2.48 6.466 6.466 0 0 1 4.69-3.52c.14-.03.27-.06.4-.09a3.431 3.431 0 0 1 .62.69 3.794 3.794 0 0 1 .54 1.06z" fill="#7e543b"/><path d="m31 40v14.86a3.641 3.641 0 0 1 -2 0v-14.86z" fill="#00665a"/><ellipse cx="35" cy="51" fill="#7e543b" rx="5" ry="6"/><path d="m36.7 53.33a4.957 4.957 0 0 1 -.84 2.85 3.456 3.456 0 0 0 -.4.79 3.44 3.44 0 0 1 -.46.03 4.266 4.266 0 0 1 -1.55-.29 5.58 5.58 0 0 1 .69-1.56 3.237 3.237 0 0 0 0-3.64 5.238 5.238 0 0 1 0-5.69 3.456 3.456 0 0 0 .4-.79 3.44 3.44 0 0 1 .46-.03 4.266 4.266 0 0 1 1.55.29 5.58 5.58 0 0 1 -.69 1.56 3.221 3.221 0 0 0 0 3.63 5.01 5.01 0 0 1 .84 2.85z" fill="#3c2415"/><path d="m30.32 54.03a3.684 3.684 0 0 1 -.32.97 3.29 3.29 0 0 1 -.57.81c-2.02 2.16-6.86 2.13-11.51-.23-5.17-2.63-6.63-10.11-6.63-10.11s6.91-3.22 12.08-.58c4.63 2.36 7.49 6.24 6.95 9.14z" fill="#64c37d"/><path d="m30.32 54.03a3.684 3.684 0 0 1 -.32.97 3.29 3.29 0 0 1 -.57.81l-13.25-6.73.91-1.78z" fill="#00665a"/></svg>